<svg width="38" height="37" viewBox="0 0 38 37" fill="none" xmlns="http://www.w3.org/2000/svg">
<path d="M14.384 33.2263C16.434 33.1874 18.4785 32.9761 20.5286 32.965C20.4225 33.2985 20.3778 33.6487 20.3945 34.0045C19.3779 33.9934 18.3612 34.0601 17.3502 34.199C13.803 34.6159 8.62476 35.6498 6.37359 32.1145C5.99374 31.5253 5.91554 31.2029 6.50208 30.6026C7.51315 31.1974 8.39016 32.1924 9.50736 32.587C11.0882 33.0706 12.7361 33.2874 14.384 33.2263Z" fill="white"/>
<path d="M20.7242 23.9155C20.8806 24.1824 21.0315 24.4659 21.1823 24.7493C20.9979 25.0217 20.7466 25.2385 20.4505 25.3941C20.3276 25.4886 20.2271 25.6054 20.1545 25.7388C20.4393 26.0834 20.8304 26.4892 20.4896 26.9339C20.1489 27.3786 19.6461 27.462 19.5344 28.0679C19.836 28.5237 20.026 29.0462 20.0874 29.5909C20.1545 31.1029 18.0206 31.3475 16.9257 31.4197C15.4566 31.4809 13.9819 31.3252 12.5575 30.9639C11.6749 30.7249 10.8425 30.3413 10.094 29.8244C9.44045 29.4019 8.4238 28.6682 8.89861 27.7788C9.23378 27.4842 9.44604 27.4119 9.81471 27.6899C10.4012 28.1457 10.837 28.7682 11.4011 29.2407C11.7698 29.502 12.172 29.7132 12.6022 29.8522C13.6858 30.2635 14.8254 30.5137 15.9817 30.597C16.9984 30.6637 19.1043 30.597 18.8753 29.0684C18.8026 28.6126 18.501 28.2791 18.4172 27.8455C18.3893 27.7232 18.4004 27.5954 18.4563 27.4842C18.5122 27.373 18.6071 27.2841 18.7244 27.2396C19.0428 27.0451 19.3836 26.8894 19.6908 26.6671L20.0204 26.4114C19.8807 26.2613 19.7523 26.1057 19.6014 25.9556C19.2942 25.6721 18.8697 25.4219 18.8473 24.955L20.2271 24.4214C19.7076 23.582 19.2328 22.7204 18.7971 21.8311C18.0206 22.248 17.205 22.6093 16.3727 22.9039C15.4845 23.1485 15.1996 22.4814 15.0544 21.7254C15.8141 21.1418 16.68 20.7249 17.6128 20.5025C18.1379 20.3803 18.9926 20.358 19.1993 20.9973C19.2663 21.1918 19.3277 21.3919 19.4059 21.5865C19.7914 22.398 20.2327 23.1818 20.7298 23.9322" fill="white"/>
<path d="M28.9357 19.9522C29.8238 19.7243 30.7399 19.6187 31.656 19.6298C31.684 19.7632 31.7454 19.9244 31.6281 20.0245C31.2874 20.1968 30.9634 20.3969 30.6115 20.5303C28.8407 21.2141 26.9358 21.442 25.1036 22.0701C24.1149 22.4147 22.9642 22.9261 23.1932 24.199C23.3496 25.1107 23.9976 25.3775 24.8188 25.4108C26.4778 25.4164 28.1313 25.2163 29.74 24.8049C30.2093 24.666 30.6952 24.6048 31.1812 24.6215C30.7679 25.9945 28.8128 26.2947 27.5559 26.4836C26.3828 26.6782 25.2154 26.7783 24.1428 27.3174C23.8077 27.5064 23.5284 27.7733 23.3329 28.1012C23.0256 28.8739 23.0647 29.6632 23.7909 30.1801C24.2657 30.408 24.7964 30.5081 25.3215 30.4692C26.7012 30.4303 27.9916 30.0134 29.3323 29.8577C29.4607 29.8466 29.5948 29.8466 29.7233 29.8577C29.6172 30.2524 29.3825 30.6026 29.0585 30.8527C27.5783 31.3641 25.9751 31.542 24.5395 32.1979C23.925 32.4258 23.4111 32.865 23.0927 33.4431C23.0256 33.582 22.9865 33.7321 22.9809 33.8878C22.9809 34.0434 23.0033 34.199 23.0592 34.338C23.115 34.4825 23.2044 34.6104 23.3105 34.7216C23.4222 34.8327 23.5507 34.9161 23.696 34.9717C24.6121 35.333 25.6566 35.1829 26.623 35.0384C27.4386 34.9161 28.2542 34.7327 29.0809 34.666C29.4552 34.6048 29.835 34.6549 30.1813 34.7994C30.7735 35.2997 29.7847 35.6165 29.3937 35.711C28.6396 35.8889 27.8687 36 27.0978 36.0445C26.3437 36.1001 25.5896 36.1335 24.8411 36.1335C24.2713 36.139 23.7071 36.0501 23.1709 35.8666C21.7129 35.3108 21.0873 33.6321 22.1375 32.3925C22.5061 31.9923 22.9474 31.6587 23.4334 31.403C22.7296 31.0918 22.0313 30.8472 21.8191 30.0301C21.7409 29.6743 21.7018 29.3074 21.6962 28.9406C21.6403 28.3625 21.8079 27.7899 22.1542 27.3286C22.5285 26.9506 22.9586 26.6282 23.4278 26.3669C22.6961 26.0834 22.1431 25.8666 21.9587 24.9939C21.7464 23.9823 21.7409 22.7093 22.6402 21.9978C22.9921 21.7421 23.3664 21.5142 23.7574 21.3197C23.1988 21.1251 22.6514 21.0028 22.2603 20.5415C21.8693 20.0801 21.8358 19.3853 21.8023 18.7516C21.78 18.2124 21.9084 17.6788 22.1766 17.2118C22.6234 16.567 23.2658 16.089 24.0144 15.8388C24.4612 15.7666 24.9081 15.7166 25.3606 15.6999C27.6285 15.6109 29.8741 15.2496 32.0527 14.6271C32.1309 14.6549 32.2035 14.7049 32.2482 14.7771C32.2929 14.8494 32.3208 14.9328 32.3152 15.0162C32.1588 15.6832 31.5723 15.9278 30.9354 16.139C30.2372 16.328 29.5222 16.4614 28.8016 16.5226C28.1257 16.6004 27.4554 16.6671 26.785 16.7505C25.746 16.8116 24.735 17.1062 23.83 17.6176C23.0424 18.2958 23.1094 18.935 23.4334 19.8355C23.8188 20.1524 24.3104 20.3136 24.8132 20.2913C26.1873 20.308 27.5559 20.1857 28.9021 19.9244" fill="white"/>
<path d="M19.8472 16.8227C19.8248 17.1007 19.7466 17.373 19.6125 17.6232C19.4785 17.8678 19.2941 18.0845 19.0707 18.2569C18.1825 18.9295 17.0765 19.1685 16.0766 19.6298C15.1661 20.0579 14.2891 20.547 13.4511 21.1029C11.3285 22.4258 9.5521 24.238 8.26731 26.3836C8.32317 26.6893 8.47958 26.9117 8.17794 27.1451C7.97125 27.2507 7.74222 27.3063 7.5132 27.2952C7.28417 27.2841 7.05515 27.2174 6.85964 27.0895C6.48538 26.6726 6.68088 26.1279 6.92108 25.7166C7.15011 25.3163 7.41266 24.9328 7.69755 24.5659C9.68058 21.9089 12.468 20.2413 15.5515 19.124C16.8195 18.6682 18.5456 17.9845 18.7635 16.4503C18.7635 16.3502 18.7858 16.2446 18.797 16.1446C18.216 15.7833 17.5736 15.5331 16.9033 15.3997C14.3728 14.7938 11.8535 14.2046 9.22811 14.6993C6.7926 15.1551 4.24537 16.656 3.56387 19.1629C3.24547 20.308 3.42982 21.2029 3.74822 22.3591C4.13924 23.7821 4.66432 25.2052 4.72018 26.6949C4.7537 27.0617 4.70342 27.4342 4.57494 27.7788C4.44646 28.1234 4.23979 28.4403 3.97166 28.696C2.94383 29.6688 1.29596 29.6132 0 29.2574V28.2179H0.0949529C1.24567 28.5237 2.81535 28.8961 3.09465 27.3063C3.24547 26.4281 2.96059 25.4275 2.74832 24.5659C2.34612 23.0373 1.62553 21.4753 1.83222 19.8577C2.36289 15.5109 7.20597 13.5876 11.0659 13.482C12.7194 13.4709 14.3673 13.6821 15.9649 14.1101C16.9815 14.3436 17.9702 14.6882 18.9087 15.1385C19.1992 15.283 19.4729 15.472 19.7131 15.6888C19.8192 15.8555 19.8862 16.0445 19.9086 16.2391C19.9309 16.4336 19.9086 16.6337 19.8472 16.8172V16.8227Z" fill="white"/>
<path d="M37.0243 17.751C36.393 18.3402 35.6445 18.8294 35.6724 19.7688C36.1305 20.1023 36.4768 20.5581 36.6779 21.0862C36.7785 21.5142 36.7673 21.9589 36.6444 22.3814C36.5215 22.8038 36.2925 23.1874 35.9797 23.4987C35.382 24.1101 34.5999 24.4381 35.1194 25.4553C35.4434 25.9222 35.706 26.4281 35.8903 26.9617C36.1305 28.1568 34.7061 29.174 33.9687 29.8411C33.7508 30.2969 33.9687 30.8083 33.9184 31.2919C33.8011 32.4703 33.1252 33.5098 31.7901 33.4764C31.684 33.4875 31.5779 33.4597 31.4941 33.3986C31.4103 33.3375 31.3489 33.243 31.3321 33.1373C31.2036 32.6815 31.5276 32.5592 31.8851 32.3869C31.9745 32.2813 32.0527 32.1646 32.1253 32.0478C32.6504 30.975 31.8013 30.069 32.8236 29.0962C33.371 28.5737 34.0469 28.2346 34.2592 27.4898C34.4714 26.7505 33.9408 26.3391 33.6 25.7777C32.6281 24.1935 34.3541 23.5376 34.9798 22.4036C35.0412 21.9033 35.2256 21.5253 34.9798 20.9306C34.4938 20.5137 33.9799 20.1746 34.0637 19.4575C34.2033 18.2791 35.2591 17.801 35.9015 16.9561C37.0522 15.4609 35.2702 13.8933 33.8235 13.7099C32.1756 13.5709 30.5109 13.6154 28.8742 13.8433C28.0084 13.9044 27.137 13.8711 26.2767 13.7321C26.1706 13.7154 26.0701 13.6654 25.9919 13.5931C25.9137 13.5153 25.8634 13.4153 25.8466 13.3097C25.8299 13.204 25.8466 13.0929 25.8969 12.9928C25.9472 12.8983 26.031 12.8205 26.1259 12.7705C26.4164 12.7038 26.718 12.7149 27.0029 12.8094C28.4106 13.0428 29.8239 12.6093 31.2315 12.5926C31.7678 12.5926 34.5832 12.6871 34.7116 12.8594C35.4658 13.0873 36.1696 13.4542 36.7896 13.9378C38.1694 14.9773 38.1694 16.5615 37.0354 17.7733" fill="white"/>
<path d="M24.5227 8.55702C24.1875 9.22962 23.9026 9.92445 23.6736 10.636C23.4893 11.2363 23.1653 12.1924 24.0199 12.4425C24.4389 12.5592 24.6567 12.5148 24.8467 12.9706C24.8187 13.2652 24.7964 13.4597 24.4892 13.5542C23.9138 13.5542 23.3496 13.4153 22.8469 13.1485C22.4782 12.9873 22.1821 12.7038 22.0034 12.348C21.8246 11.9923 21.7855 11.5809 21.8805 11.1918C21.9308 11.0084 21.9922 10.8194 22.0425 10.636C22.4726 8.99059 23.601 7.51755 23.5786 5.76102C23.5786 4.1379 23.182 2.35913 21.8805 1.26408C21.7017 1.12511 21.495 1.03617 21.2716 1.00838C20.9476 3.0484 20.713 5.46085 19.4338 7.18959C18.0987 8.99615 16.6464 10.686 14.6242 11.7588C13.2668 12.4092 11.7921 12.7871 10.2895 12.8594C7.73107 13.104 5.15032 12.726 2.77626 11.7588C2.31821 11.5587 2.06126 11.403 2.31822 10.9083C2.57518 10.5859 2.70365 10.7249 3.06674 10.686C4.17278 11.1974 5.34584 11.5531 6.55242 11.731C8.49077 12.0367 10.4682 11.9422 12.3675 11.4586C13.2166 11.2141 14.0153 10.8083 14.7192 10.2691C16.2274 9.11288 17.4787 7.65652 18.3948 6.00004C19.1154 4.73823 19.2439 3.29298 19.4841 1.88665C19.5902 1.25296 19.6796 0.185702 20.5007 0.0578527C21.1264 -0.0588788 21.7688 0.00226627 22.3609 0.230171C22.953 0.458075 23.4669 0.84718 23.8468 1.35302C25.3382 3.18181 25.6119 6.17236 24.6735 8.31244C24.6344 8.40138 24.5897 8.4792 24.5506 8.56814" fill="white"/>
</svg>
