<svg width="221" height="50" viewBox="0 0 221 50" fill="none" xmlns="http://www.w3.org/2000/svg">
<g clip-path="url(#clip0_195_2092)">
<path d="M78.2381 43.7243H79.2492L81.1987 48.6493H80.2602L79.858 47.5987H77.6069L77.2047 48.6493H76.2886L78.2381 43.7243ZM79.5564 46.8093L78.7297 44.647L77.9029 46.8093H79.5508H79.5564Z" fill="white"/>
<path d="M81.707 45.0083H82.5114V45.5309C82.8187 45.1529 83.2655 44.925 83.8018 44.925C84.8296 44.925 85.6005 45.7476 85.6005 46.8316C85.6005 47.9155 84.824 48.7382 83.8018 48.7382C83.2655 48.7382 82.8187 48.5103 82.5114 48.1323V50.0111H81.707V45.0139V45.0083ZM84.7682 46.826C84.7682 46.1812 84.2878 45.6921 83.6398 45.6921C82.9918 45.6921 82.5058 46.1868 82.5058 46.826C82.5058 47.4653 82.9918 47.96 83.6398 47.96C84.2878 47.96 84.7682 47.4653 84.7682 46.826Z" fill="white"/>
<path d="M86.3379 45.0083H87.1423V45.6142C87.4272 45.2029 87.8517 44.9528 88.3712 44.9528H88.4997V45.7754H88.3712C87.5947 45.7754 87.1423 46.209 87.1423 46.8816V48.6492H86.3379V45.0083Z" fill="white"/>
<path d="M88.7119 46.826C88.7119 45.7421 89.5498 44.9194 90.6614 44.9194C91.7731 44.9194 92.6221 45.7421 92.6221 46.8316C92.6221 46.9316 92.6166 47.0372 92.5998 47.1317H89.5722C89.6951 47.6598 90.1252 48.01 90.7005 48.01C91.1251 48.01 91.4882 47.8266 91.6781 47.5486H92.5663C92.2702 48.2546 91.5552 48.7326 90.6894 48.7326C89.5554 48.7326 88.7175 47.9099 88.7175 46.826H88.7119ZM89.5778 46.4758H91.7563C91.6334 45.9755 91.2033 45.642 90.6614 45.642C90.1196 45.642 89.7062 45.97 89.5778 46.4758Z" fill="white"/>
<path d="M93.3203 45.0083H94.1247V45.4697C94.4208 45.114 94.8397 44.9194 95.3592 44.9194C96.2251 44.9194 96.806 45.4919 96.806 46.3535V48.6437H96.0016V46.6148C96.0016 46.0589 95.6441 45.6865 95.0911 45.6865C94.5101 45.6865 94.1247 46.0645 94.1247 46.6259V48.6381H93.3203V44.9972V45.0083Z" fill="white"/>
<path d="M97.5322 46.826C97.5322 45.7421 98.2975 44.9194 99.3309 44.9194C99.8672 44.9194 100.314 45.1473 100.616 45.5253V43.5075H101.42V48.6437H100.616V48.1212C100.314 48.4992 99.8672 48.7271 99.3309 48.7271C98.2975 48.7271 97.5322 47.9044 97.5322 46.8205V46.826ZM100.616 46.826C100.616 46.1812 100.135 45.6921 99.4873 45.6921C98.8394 45.6921 98.3534 46.1868 98.3534 46.826C98.3534 47.4653 98.8338 47.96 99.4873 47.96C100.141 47.96 100.616 47.4653 100.616 46.826Z" fill="white"/>
<path d="M102.163 46.826C102.163 45.7421 103.001 44.9194 104.113 44.9194C105.224 44.9194 106.073 45.7421 106.073 46.8316C106.073 46.9316 106.068 47.0372 106.051 47.1317H103.023C103.146 47.6598 103.576 48.01 104.152 48.01C104.576 48.01 104.939 47.8266 105.129 47.5486H106.017C105.721 48.2546 105.006 48.7326 104.141 48.7326C103.007 48.7326 102.169 47.9099 102.169 46.826H102.163ZM103.029 46.4758H105.207C105.085 45.9755 104.654 45.642 104.113 45.642C103.571 45.642 103.157 45.97 103.029 46.4758Z" fill="white"/>
<path d="M106.771 45.0083H107.576V45.6142C107.861 45.2029 108.285 44.9528 108.805 44.9528H108.933V45.7754H108.805C108.028 45.7754 107.576 46.209 107.576 46.8816V48.6492H106.771V45.0083Z" fill="white"/>
<path d="M110.989 46.826C110.989 45.7421 111.827 44.9194 112.938 44.9194C114.05 44.9194 114.899 45.7421 114.899 46.8316C114.899 46.9316 114.893 47.0372 114.877 47.1317H111.849C111.972 47.6598 112.402 48.01 112.977 48.01C113.402 48.01 113.765 47.8266 113.955 47.5486H114.843C114.547 48.2546 113.832 48.7326 112.966 48.7326C111.832 48.7326 110.994 47.91 110.994 46.826H110.989ZM111.855 46.4758H114.033C113.91 45.9755 113.48 45.642 112.938 45.642C112.396 45.642 111.983 45.97 111.855 46.4758ZM113.206 43.5909H114.223L113.318 44.5748H112.469L113.201 43.5909H113.206Z" fill="white"/>
<path d="M117.307 45.0083H118.111V45.5309C118.418 45.1529 118.865 44.925 119.401 44.925C120.429 44.925 121.2 45.7476 121.2 46.8316C121.2 47.9155 120.424 48.7382 119.401 48.7382C118.865 48.7382 118.418 48.5103 118.111 48.1323V50.0111H117.307V45.0139V45.0083ZM120.368 46.826C120.368 46.1812 119.887 45.6921 119.239 45.6921C118.591 45.6921 118.105 46.1868 118.105 46.826C118.105 47.4653 118.591 47.96 119.239 47.96C119.887 47.96 120.368 47.4653 120.368 46.826Z" fill="white"/>
<path d="M121.731 46.826C121.731 45.7421 122.496 44.9194 123.53 44.9194C124.066 44.9194 124.513 45.1473 124.814 45.5253V45.0028H125.619V48.6437H124.814V48.1212C124.513 48.4992 124.066 48.7271 123.53 48.7271C122.496 48.7271 121.731 47.9044 121.731 46.8205V46.826ZM124.814 46.826C124.814 46.1812 124.334 45.6921 123.686 45.6921C123.038 45.6921 122.552 46.1868 122.552 46.826C122.552 47.4653 123.033 47.96 123.686 47.96C124.34 47.96 124.814 47.4653 124.814 46.826Z" fill="white"/>
<path d="M126.574 45.0083H127.379V45.6142C127.663 45.2029 128.088 44.9528 128.608 44.9528H128.736V45.7754H128.608C127.831 45.7754 127.379 46.209 127.379 46.8816V48.6492H126.574V45.0083Z" fill="white"/>
<path d="M128.959 46.826C128.959 45.7421 129.724 44.9194 130.758 44.9194C131.294 44.9194 131.741 45.1473 132.042 45.5253V45.0028H132.847V48.6437H132.042V48.1212C131.741 48.4992 131.3 48.7271 130.758 48.7271C129.724 48.7271 128.959 47.9044 128.959 46.8205V46.826ZM132.042 46.826C132.042 46.1812 131.562 45.6921 130.914 45.6921C130.266 45.6921 129.78 46.1868 129.78 46.826C129.78 47.4653 130.261 47.96 130.914 47.96C131.568 47.96 132.042 47.4653 132.042 46.826Z" fill="white"/>
<path d="M135.283 46.826C135.283 45.7421 136.048 44.9194 137.081 44.9194C137.618 44.9194 138.065 45.1473 138.366 45.5253V45.0028H139.171V48.6437H138.366V48.1212C138.065 48.4992 137.618 48.7271 137.081 48.7271C136.048 48.7271 135.283 47.9044 135.283 46.8205V46.826ZM138.366 46.826C138.366 46.1812 137.886 45.6921 137.238 45.6921C136.59 45.6921 136.104 46.1868 136.104 46.826C136.104 47.4653 136.584 47.96 137.238 47.96C137.891 47.96 138.366 47.4653 138.366 46.826Z" fill="white"/>
<path d="M141.405 45.0083H142.321L143.388 47.6654L144.449 45.0083H145.343L143.796 48.6492H142.958L141.399 45.0083H141.405Z" fill="white"/>
<path d="M145.801 43.9133C145.801 43.6187 146.025 43.4074 146.31 43.4074C146.594 43.4074 146.824 43.6242 146.824 43.9133C146.824 44.2023 146.6 44.4191 146.31 44.4191C146.019 44.4191 145.801 44.1968 145.801 43.9133ZM145.907 45.0083H146.712V48.6492H145.907V45.0083Z" fill="white"/>
<path d="M147.471 46.826C147.471 45.7421 148.236 44.9194 149.27 44.9194C149.806 44.9194 150.253 45.1473 150.555 45.5253V43.5075H151.359V48.6437H150.555V48.1212C150.253 48.4992 149.806 48.7271 149.27 48.7271C148.236 48.7271 147.471 47.9044 147.471 46.8205V46.826ZM150.555 46.826C150.555 46.1812 150.074 45.6921 149.426 45.6921C148.778 45.6921 148.292 46.1868 148.292 46.826C148.292 47.4653 148.773 47.96 149.426 47.96C150.08 47.96 150.555 47.4653 150.555 46.826Z" fill="white"/>
<path d="M152.119 46.826C152.119 45.7421 152.884 44.9194 153.918 44.9194C154.454 44.9194 154.901 45.1473 155.203 45.5253V45.0028H156.007V48.6437H155.203V48.1212C154.901 48.4992 154.454 48.7271 153.918 48.7271C152.884 48.7271 152.119 47.9044 152.119 46.8205V46.826ZM155.203 46.826C155.203 46.1812 154.722 45.6921 154.074 45.6921C153.426 45.6921 152.94 46.1868 152.94 46.826C152.94 47.4653 153.421 47.96 154.074 47.96C154.728 47.96 155.203 47.4653 155.203 46.826Z" fill="white"/>
<path d="M33.6728 5.78099H35.0023C35.0023 6.43135 35.6335 6.91495 36.449 6.91495C37.2087 6.91495 37.8176 6.50361 37.8176 5.90884C37.8176 4.42468 33.8013 5.09728 33.8013 2.55142C33.8013 1.21178 34.952 0.344635 36.3988 0.344635C37.8456 0.344635 39.0186 1.28405 39.0186 2.5403H37.6891C37.6891 1.94552 37.125 1.50083 36.3708 1.50083C35.6949 1.50083 35.1196 1.8677 35.1196 2.45136C35.1196 3.93552 39.1471 3.16843 39.1471 5.76431C39.1471 7.15953 37.9405 8.07115 36.4267 8.07115C34.9129 8.07115 33.6616 7.07615 33.6616 5.77543L33.6728 5.78099Z" fill="white"/>
<path d="M40.3535 0.767093C40.3535 0.322401 40.6887 0 41.1244 0C41.5601 0 41.9064 0.322401 41.9064 0.767093C41.9064 1.21178 41.5713 1.53419 41.1244 1.53419C40.6775 1.53419 40.3535 1.20067 40.3535 0.767093ZM40.5155 2.42357H41.7333V7.9433H40.5155V2.42357Z" fill="white"/>
<path d="M43.0737 6.32018H44.3138C44.3138 6.74263 44.716 7.02613 45.3026 7.02613C45.8444 7.02613 46.2075 6.77599 46.2075 6.43135C46.2075 5.43635 43.1631 5.98666 43.1631 4.03002C43.1631 2.9572 44.0234 2.29572 45.2523 2.29572C46.4812 2.29572 47.3638 2.97943 47.3638 3.97443H46.1237C46.1237 3.59644 45.7662 3.33519 45.2411 3.33519C44.716 3.33519 44.392 3.56309 44.392 3.89661C44.392 4.85825 47.4476 4.33018 47.4476 6.29794C47.4476 7.37076 46.5873 8.07115 45.2914 8.07115C43.9954 8.07115 43.0737 7.35408 43.0737 6.32018Z" fill="white"/>
<path d="M49.3079 6.24792V3.52974H48.375V2.42357H48.9392C49.2241 2.42357 49.3749 2.27349 49.3749 1.98999V0.928293H50.5256V2.42357H51.8942V3.52974H50.5256V6.05336C50.5256 6.54252 50.8329 6.83157 51.3412 6.83157H51.8942V7.94886H51.168C49.9614 7.94886 49.3079 7.34297 49.3079 6.24792Z" fill="white"/>
<path d="M52.7544 5.18621C52.7544 3.54086 54.028 2.29572 55.715 2.29572C57.402 2.29572 58.6868 3.54086 58.6868 5.19733C58.6868 5.31406 58.6756 5.51973 58.6532 5.65314H54.0615C54.2459 6.45358 54.8994 6.98721 55.7708 6.98721C56.4132 6.98721 56.9663 6.70372 57.2511 6.28127H58.5974C58.1505 7.35408 57.0612 8.07671 55.7485 8.07671C54.028 8.07671 52.7544 6.83157 52.7544 5.18621ZM54.0727 4.65258H57.3685C57.1841 3.89661 56.5305 3.38521 55.715 3.38521C54.8994 3.38521 54.2682 3.88549 54.0727 4.65258Z" fill="white"/>
<path d="M59.9658 2.42357H61.1836V3.06281C61.5969 2.56253 62.1835 2.29572 62.9041 2.29572C63.742 2.29572 64.3844 2.67371 64.7084 3.30183C65.1329 2.65147 65.8088 2.29572 66.6691 2.29572C67.898 2.29572 68.7135 3.1184 68.7135 4.36353V6.27015C68.7135 6.58143 68.9091 6.78154 69.2275 6.78154H69.3336V7.94886H68.9761C68.0097 7.94886 67.4958 7.4597 67.4958 6.54252V4.72485C67.4958 3.96887 67.0154 3.46859 66.2669 3.46859C65.5183 3.46859 64.9486 3.97999 64.9486 4.74708V7.94886H63.7308V4.72485C63.7308 3.96887 63.2504 3.46859 62.5019 3.46859C61.7533 3.46859 61.1836 3.97999 61.1836 4.74708V7.94886H59.9658V2.42357Z" fill="white"/>
<path d="M70.0933 5.18621C70.0933 3.54086 71.2552 2.29572 72.8248 2.29572C73.6404 2.29572 74.3163 2.64036 74.7744 3.21845V2.42913H75.9921V6.27015C75.9921 6.58143 76.1764 6.78154 76.506 6.78154H76.6066V7.94886H76.2602C75.5005 7.94886 75.0201 7.64313 74.8581 7.07059C74.3889 7.69872 73.6851 8.07671 72.836 8.07671C71.2719 8.07671 70.1044 6.83157 70.1044 5.18621H70.0933ZM74.7688 5.18621C74.7688 4.21345 74.0426 3.46303 73.0594 3.46303C72.0763 3.46303 71.3389 4.20789 71.3389 5.18621C71.3389 6.16454 72.0651 6.90939 73.0594 6.90939C74.0537 6.90939 74.7688 6.16454 74.7688 5.18621Z" fill="white"/>
<path d="M35.2759 25.164C35.2759 18.9161 40.1469 14.1912 46.6323 14.1912C53.1176 14.1912 57.9887 18.9161 57.9887 25.164C57.9887 31.4119 53.1176 36.1367 46.6323 36.1367C40.1469 36.1367 35.2759 31.4119 35.2759 25.164ZM51.7938 25.164C51.7938 22.2068 49.604 19.9833 46.6323 19.9833C43.6605 19.9833 41.4708 22.2012 41.4708 25.164C41.4708 28.1267 43.6605 30.3446 46.6323 30.3446C49.604 30.3446 51.7938 28.1267 51.7938 25.164Z" fill="#F05734"/>
<path d="M59.6028 29.2718H65.6301C65.6301 30.5058 66.8702 31.3674 68.6018 31.3674C70.1324 31.3674 71.244 30.667 71.244 29.7221C71.244 26.6426 59.9267 28.5325 59.9267 20.9672C59.9267 16.5314 63.6861 14.1857 68.3114 14.1857C73.35 14.1857 76.9027 16.9817 76.9027 20.7615H70.9145C70.9145 19.6498 69.7973 18.9105 68.2723 18.9105C66.9093 18.9105 65.8759 19.5275 65.8759 20.4725C65.8759 23.4297 77.2323 21.6231 77.2323 29.1051C77.2323 33.2963 73.7242 36.1312 68.6018 36.1312C63.4795 36.1312 59.5972 33.174 59.5972 29.2663L59.6028 29.2718Z" fill="#F05734"/>
<path d="M79.1763 8.88827C79.1763 6.79266 80.785 5.23068 82.891 5.23068C84.9969 5.23068 86.6504 6.79266 86.6504 8.88827C86.6504 10.9839 85.0416 12.5848 82.891 12.5848C80.7404 12.5848 79.1763 11.0228 79.1763 8.88827ZM79.8745 15.1807H85.9018V36.1367H79.8745V15.1807Z" fill="#F05734"/>
<path d="M92.1472 29.3163V20.6448H89.0078V15.1807H90.7451C91.9014 15.1807 92.4767 14.6081 92.4767 13.4519V9.67204H98.1745V15.1807H102.761V20.6448H98.1745V28.3324C98.1745 29.811 99.085 30.6726 100.655 30.6726H102.761V36.1367H99.7442C94.7447 36.1367 92.1472 33.7966 92.1472 29.3163Z" fill="#F05734"/>
<path d="M105.157 8.88827C105.157 6.79266 106.766 5.23068 108.871 5.23068C110.977 5.23068 112.631 6.79266 112.631 8.88827C112.631 10.9839 111.022 12.5848 108.871 12.5848C106.721 12.5848 105.157 11.0228 105.157 8.88827ZM105.861 15.1807H111.888V36.1367H105.861V15.1807Z" fill="#F05734"/>
<path d="M113.452 15.1807H120.351L125.222 28.577L127.289 23.0684C128.406 19.861 128.942 17.3152 128.484 15.1807H134.679C135.132 17.5653 134.64 20.6059 133.109 24.3024L128.238 36.1367H122.043L113.452 15.1807Z" fill="#F05734"/>
<path d="M136.394 25.164C136.394 18.9161 141.265 14.1912 147.75 14.1912C154.236 14.1912 159.107 18.9161 159.107 25.164C159.107 31.4119 154.236 36.1367 147.75 36.1367C141.265 36.1367 136.394 31.4119 136.394 25.164ZM152.912 25.164C152.912 22.2068 150.722 19.9833 147.75 19.9833C144.779 19.9833 142.589 22.2012 142.589 25.164C142.589 28.1267 144.779 30.3446 147.75 30.3446C150.722 30.3446 152.912 28.1267 152.912 25.164Z" fill="#F05734"/>
<path d="M23.6345 7.7821H10.4626V21.1618H0V27.0428H10.4626V36.1367H16.8642V27.0984H23.6345C29.3322 27.0984 33.6279 22.9461 33.6279 17.443C33.6279 11.94 29.3322 7.78766 23.6345 7.78766V7.7821ZM23.5116 21.0951H13.5517L16.8642 18.7771V13.7799H23.5116C25.5337 13.7799 27.0643 15.3419 27.0643 17.4375C27.0643 19.5331 25.5337 21.0951 23.5116 21.0951Z" fill="#F05734"/>
<path d="M197.544 33.2296C199.594 33.1907 201.639 32.9794 203.689 32.9683C203.583 33.3018 203.538 33.652 203.555 34.0078C202.538 33.9967 201.521 34.0634 200.51 34.2023C196.963 34.6192 191.785 35.6531 189.534 32.1178C189.154 31.5286 189.076 31.2062 189.662 30.6059C190.673 31.2007 191.55 32.1957 192.668 32.5903C194.248 33.0739 195.896 33.2907 197.544 33.2296Z" fill="white"/>
<path d="M203.884 23.9188C204.041 24.1857 204.192 24.4691 204.342 24.7526C204.158 25.025 203.907 25.2418 203.611 25.3974C203.488 25.4919 203.387 25.6087 203.315 25.7421C203.599 26.0867 203.991 26.4925 203.65 26.9372C203.309 27.3819 202.806 27.4653 202.695 28.0711C202.996 28.527 203.186 29.0495 203.248 29.5942C203.315 31.1062 201.181 31.3507 200.086 31.423C198.617 31.4842 197.142 31.3285 195.718 30.9672C194.835 30.7282 194.003 30.3446 193.254 29.8277C192.601 29.4052 191.584 28.6715 192.059 27.7821C192.394 27.4875 192.606 27.4152 192.975 27.6932C193.561 28.149 193.997 28.7715 194.561 29.244C194.93 29.5053 195.332 29.7165 195.762 29.8555C196.846 30.2668 197.986 30.517 199.142 30.6003C200.159 30.667 202.264 30.6003 202.035 29.0717C201.963 28.6159 201.661 28.2824 201.577 27.8488C201.549 27.7265 201.561 27.5987 201.616 27.4875C201.672 27.3763 201.767 27.2874 201.885 27.2429C202.203 27.0484 202.544 26.8927 202.851 26.6704L203.181 26.4147C203.041 26.2646 202.912 26.1089 202.762 25.9589C202.454 25.6754 202.03 25.4252 202.007 24.9583L203.387 24.4247C202.868 23.5853 202.393 22.7237 201.957 21.8344C201.181 22.2512 200.365 22.6126 199.533 22.9072C198.645 23.1517 198.36 22.4847 198.215 21.7287C198.974 21.1451 199.84 20.7282 200.773 20.5058C201.298 20.3835 202.153 20.3613 202.359 21.0006C202.426 21.1951 202.488 21.3952 202.566 21.5898C202.952 22.4013 203.393 23.1851 203.89 23.9355" fill="white"/>
<path d="M212.096 19.9555C212.984 19.7276 213.9 19.622 214.816 19.6331C214.844 19.7665 214.906 19.9277 214.788 20.0278C214.448 20.2001 214.124 20.4002 213.772 20.5336C212.001 21.2173 210.096 21.4452 208.264 22.0734C207.275 22.418 206.124 22.9294 206.353 24.2023C206.51 25.114 207.158 25.3808 207.979 25.4141C209.638 25.4197 211.291 25.2196 212.9 24.8082C213.369 24.6693 213.855 24.6081 214.341 24.6248C213.928 25.9978 211.973 26.2979 210.716 26.4869C209.543 26.6815 208.376 26.7815 207.303 27.3207C206.968 27.5097 206.689 27.7765 206.493 28.1045C206.186 28.8772 206.225 29.6665 206.951 30.1834C207.426 30.4113 207.957 30.5114 208.482 30.4725C209.861 30.4336 211.152 30.0167 212.492 29.861C212.621 29.8499 212.755 29.8499 212.883 29.861C212.777 30.2557 212.543 30.6059 212.219 30.856C210.738 31.3674 209.135 31.5453 207.7 32.2012C207.085 32.4291 206.571 32.8683 206.253 33.4464C206.186 33.5853 206.147 33.7354 206.141 33.8911C206.141 34.0467 206.163 34.2023 206.219 34.3413C206.275 34.4858 206.365 34.6137 206.471 34.7249C206.582 34.836 206.711 34.9194 206.856 34.975C207.772 35.3363 208.817 35.1862 209.783 35.0417C210.599 34.9194 211.414 34.736 212.241 34.6693C212.615 34.6081 212.995 34.6581 213.342 34.8027C213.934 35.3029 212.945 35.6198 212.554 35.7143C211.8 35.8922 211.029 36.0033 210.258 36.0478C209.504 36.1034 208.75 36.1367 208.001 36.1367C207.431 36.1423 206.867 36.0534 206.331 35.8699C204.873 35.3141 204.247 33.6354 205.298 32.3958C205.666 31.9956 206.108 31.662 206.594 31.4063C205.89 31.0951 205.191 30.8505 204.979 30.0334C204.901 29.6776 204.862 29.3107 204.856 28.9439C204.8 28.3658 204.968 27.7932 205.314 27.3319C205.689 26.9539 206.119 26.6315 206.588 26.3702C205.856 26.0867 205.303 25.8699 205.119 24.9972C204.907 23.9856 204.901 22.7126 205.8 22.0011C206.152 21.7454 206.527 21.5175 206.918 21.323C206.359 21.1284 205.812 21.0061 205.421 20.5447C205.029 20.0834 204.996 19.3886 204.962 18.7549C204.94 18.2157 205.069 17.682 205.337 17.2151C205.784 16.5703 206.426 16.0923 207.175 15.8421C207.621 15.7699 208.068 15.7198 208.521 15.7032C210.789 15.6142 213.034 15.2529 215.213 14.6304C215.291 14.6581 215.364 14.7082 215.408 14.7804C215.453 14.8527 215.481 14.9361 215.475 15.0195C215.319 15.6865 214.732 15.9311 214.096 16.1423C213.397 16.3313 212.682 16.4647 211.962 16.5258C211.286 16.6037 210.616 16.6704 209.945 16.7538C208.906 16.8149 207.895 17.1095 206.99 17.6209C206.203 18.2991 206.27 18.9383 206.594 19.8388C206.979 20.1556 207.471 20.3168 207.973 20.2946C209.347 20.3113 210.716 20.189 212.062 19.9277" fill="white"/>
<path d="M203.007 16.826C202.985 17.104 202.907 17.3763 202.773 17.6265C202.639 17.871 202.454 18.0878 202.231 18.2601C201.343 18.9327 200.237 19.1718 199.237 19.6331C198.326 20.0611 197.449 20.5503 196.611 21.1062C194.489 22.4291 192.712 24.2412 191.427 26.3869C191.483 26.6926 191.64 26.915 191.338 27.1484C191.131 27.254 190.902 27.3096 190.673 27.2985C190.444 27.2874 190.215 27.2207 190.02 27.0928C189.646 26.6759 189.841 26.1312 190.081 25.7198C190.31 25.3196 190.573 24.9361 190.858 24.5692C192.841 21.9122 195.628 20.2446 198.712 19.1273C199.98 18.6715 201.706 17.9878 201.924 16.4536C201.924 16.3535 201.946 16.2479 201.957 16.1479C201.376 15.7866 200.734 15.5364 200.063 15.403C197.533 14.7971 195.014 14.2079 192.388 14.7026C189.953 15.1584 187.406 16.6593 186.724 19.1662C186.406 20.3113 186.59 21.2062 186.908 22.3624C187.299 23.7854 187.824 25.2085 187.88 26.6982C187.914 27.065 187.864 27.4375 187.735 27.7821C187.607 28.1267 187.4 28.4436 187.132 28.6993C186.104 29.672 184.456 29.6165 183.16 29.2607V28.2212H183.255C184.406 28.527 185.976 28.8994 186.255 27.3096C186.406 26.4314 186.121 25.4308 185.908 24.5692C185.506 23.0406 184.786 21.4786 184.992 19.861C185.523 15.5142 190.366 13.5909 194.226 13.4853C195.88 13.4742 197.527 13.6854 199.125 14.1134C200.142 14.3469 201.13 14.6915 202.069 15.1417C202.359 15.2863 202.633 15.4753 202.873 15.6921C202.979 15.8588 203.046 16.0478 203.069 16.2424C203.091 16.4369 203.069 16.637 203.007 16.8205V16.826Z" fill="white"/>
<path d="M220.184 17.7543C219.553 18.3435 218.805 18.8327 218.833 19.7721C219.291 20.1056 219.637 20.5614 219.838 21.0895C219.939 21.5175 219.927 21.9622 219.805 22.3847C219.682 22.8071 219.453 23.1907 219.14 23.5019C218.542 24.1134 217.76 24.4414 218.28 25.4586C218.604 25.9255 218.866 26.4313 219.05 26.965C219.291 28.1601 217.866 29.1773 217.129 29.8444C216.911 30.3002 217.129 30.8116 217.079 31.2952C216.961 32.4736 216.285 33.5131 214.95 33.4797C214.844 33.4908 214.738 33.463 214.654 33.4019C214.57 33.3407 214.509 33.2462 214.492 33.1406C214.364 32.6848 214.688 32.5625 215.045 32.3902C215.135 32.2846 215.213 32.1679 215.285 32.0511C215.811 30.9783 214.961 30.0723 215.984 29.0995C216.531 28.577 217.207 28.2379 217.419 27.4931C217.632 26.7538 217.101 26.3424 216.76 25.781C215.788 24.1968 217.514 23.5409 218.14 22.4069C218.201 21.9066 218.386 21.5286 218.14 20.9339C217.654 20.517 217.14 20.1779 217.224 19.4608C217.363 18.2824 218.419 17.8043 219.062 16.9594C220.212 15.4641 218.43 13.8966 216.984 13.7132C215.336 13.5742 213.671 13.6187 212.034 13.8466C211.169 13.9077 210.297 13.8744 209.437 13.7354C209.331 13.7187 209.23 13.6687 209.152 13.5964C209.074 13.5186 209.024 13.4186 209.007 13.313C208.99 13.2073 209.007 13.0962 209.057 12.9961C209.107 12.9016 209.191 12.8238 209.286 12.7738C209.577 12.7071 209.878 12.7182 210.163 12.8127C211.571 13.0461 212.984 12.6126 214.392 12.5959C214.928 12.5959 217.743 12.6904 217.872 12.8627C218.626 13.0906 219.33 13.4575 219.95 13.9411C221.33 14.9805 221.33 16.5648 220.196 17.7765" fill="white"/>
<path d="M207.683 8.56031C207.348 9.23291 207.063 9.92774 206.834 10.6392C206.649 11.2396 206.325 12.1957 207.18 12.4458C207.599 12.5625 207.817 12.5181 208.007 12.9739C207.979 13.2685 207.957 13.463 207.649 13.5575C207.074 13.5575 206.51 13.4186 206.007 13.1518C205.638 12.9906 205.342 12.7071 205.164 12.3513C204.985 11.9956 204.946 11.5842 205.041 11.1951C205.091 11.0117 205.152 10.8227 205.203 10.6392C205.633 8.99389 206.761 7.52084 206.739 5.76431C206.739 4.14119 206.342 2.36242 205.041 1.26737C204.862 1.1284 204.655 1.03947 204.432 1.01167C204.108 3.0517 203.873 5.46415 202.594 7.19288C201.259 8.99944 199.807 10.6893 197.784 11.7621C196.427 12.4125 194.952 12.7904 193.45 12.8627C190.891 13.1073 188.31 12.7293 185.936 11.7621C185.478 11.562 185.221 11.4063 185.478 10.9116C185.735 10.5892 185.864 10.7282 186.227 10.6893C187.333 11.2007 188.506 11.5564 189.713 11.7343C191.651 12.04 193.628 11.9455 195.528 11.4619C196.377 11.2173 197.176 10.8116 197.879 10.2724C199.388 9.11618 200.639 7.65981 201.555 6.00333C202.276 4.74152 202.404 3.29628 202.644 1.88994C202.75 1.25625 202.84 0.188994 203.661 0.0611448C204.287 -0.0555867 204.929 0.00555835 205.521 0.233463C206.113 0.461367 206.627 0.850472 207.007 1.35631C208.498 3.1851 208.772 6.17565 207.834 8.31573C207.795 8.40467 207.75 8.48249 207.711 8.57143" fill="white"/>
</g>
<defs>
<clipPath id="clip0_195_2092">
<rect width="221" height="50" fill="white"/>
</clipPath>
</defs>
</svg>
